<svg width="60" height="80" viewBox="0 0 60 80" fill="none" xmlns="http://www.w3.org/2000/svg">
<g clip-path="url(#clip0_52_836)">
<path d="M0 8C0 3.58172 3.58172 0 8 0H34L60 26V72C60 76.4183 56.4183 80 52 80H8C3.58172 80 0 76.4183 0 72V8Z" fill="#6E45F0" style="fill:#6E45F0;fill:color(display-p3 0.4330 0.2701 0.9404);fill-opacity:1;"/>
<path d="M40 26H60L34 0V20C34 23.3137 36.6863 26 40 26Z" fill="white" fill-opacity="0.5" style="fill:white;fill-opacity:0.5;"/>
</g>
<path d="M24.75 65.5H15V47.5H24.75V65.5ZM24.75 65.5V38.5H34.5V65.5M24.75 65.5H34.5M34.5 65.5V53.5H44.25V65.5H34.5Z" stroke="white" style="stroke:white;stroke-opacity:1;" stroke-width="3" stroke-linecap="round" stroke-linejoin="round"/>
<defs>
<clipPath id="clip0_52_836">
<rect width="60" height="80" fill="white" style="fill:white;fill-opacity:1;"/>
</clipPath>
</defs>
</svg>
