<svg width="60" height="80" viewBox="0 0 60 80" fill="none" xmlns="http://www.w3.org/2000/svg">
<g clip-path="url(#clip0_64_522)">
<path d="M0 8C0 3.58172 3.58172 0 8 0H34L60 26V72C60 76.4183 56.4183 80 52 80H8C3.58172 80 0 76.4183 0 72V8Z" fill="#6E45F0" style="fill:#6E45F0;fill:color(display-p3 0.4330 0.2701 0.9404);fill-opacity:1;"/>
<path d="M40 26H60L34 0V20C34 23.3137 36.6863 26 40 26Z" fill="white" fill-opacity="0.5" style="fill:white;fill-opacity:0.5;"/>
</g>
<path d="M9.44741 50.4545H13.24L17.2457 60.2273H17.4162L21.4218 50.4545H25.2145V65H22.2315V55.5327H22.1108L18.3466 64.929H16.3153L12.5511 55.4972H12.4304V65H9.44741V50.4545ZM27.3482 65V50.4545H33.0868C34.19 50.4545 35.1299 50.6652 35.9064 51.0866C36.6829 51.5033 37.2748 52.0833 37.682 52.8267C38.0939 53.5653 38.2999 54.4176 38.2999 55.3835C38.2999 56.3494 38.0916 57.2017 37.6749 57.9403C37.2582 58.679 36.6545 59.2543 35.8638 59.6662C35.0778 60.0781 34.1261 60.2841 33.0087 60.2841H29.351V57.8196H32.5115C33.1034 57.8196 33.5911 57.7178 33.9746 57.5142C34.3629 57.3059 34.6517 57.0194 34.8411 56.6548C35.0352 56.2855 35.1323 55.8617 35.1323 55.3835C35.1323 54.9006 35.0352 54.4792 34.8411 54.1193C34.6517 53.7547 34.3629 53.473 33.9746 53.2741C33.5864 53.0705 33.0939 52.9688 32.4973 52.9688H30.4235V65H27.3482ZM45.1886 65.1989C44.128 65.1989 43.1834 65.0166 42.3548 64.652C41.5309 64.2827 40.8799 63.776 40.4017 63.1321C39.9282 62.4834 39.6843 61.7353 39.6701 60.8878H42.7667C42.7857 61.2429 42.9017 61.5554 43.1147 61.8253C43.3325 62.0904 43.6214 62.2964 43.9812 62.4432C44.3411 62.59 44.7459 62.6634 45.1957 62.6634C45.6645 62.6634 46.0788 62.5805 46.4386 62.4148C46.7984 62.2491 47.0802 62.0194 47.2838 61.7259C47.4874 61.4323 47.5892 61.0937 47.5892 60.7102C47.5892 60.322 47.4803 59.9787 47.2625 59.6804C47.0494 59.3774 46.7416 59.1406 46.3392 58.9702C45.9414 58.7997 45.468 58.7145 44.9187 58.7145H43.5622V56.456H44.9187C45.3827 56.456 45.7923 56.3755 46.1474 56.2145C46.5073 56.0535 46.7866 55.831 46.9855 55.5469C47.1843 55.258 47.2838 54.9219 47.2838 54.5384C47.2838 54.1738 47.1962 53.8542 47.021 53.5795C46.8505 53.3002 46.6091 53.0824 46.2966 52.9261C45.9888 52.7699 45.6289 52.6918 45.217 52.6918C44.8003 52.6918 44.4192 52.7675 44.0735 52.919C43.7279 53.0658 43.4509 53.2765 43.2426 53.5511C43.0342 53.8258 42.923 54.1477 42.9088 54.517H39.9613C39.9755 53.679 40.2146 52.9403 40.6787 52.3011C41.1427 51.6619 41.7677 51.1624 42.5537 50.8026C43.3444 50.438 44.2369 50.2557 45.2312 50.2557C46.235 50.2557 47.1133 50.438 47.8662 50.8026C48.619 51.1671 49.2038 51.6596 49.6204 52.2798C50.0418 52.8954 50.2502 53.5866 50.2454 54.3537C50.2502 55.1681 49.9968 55.8475 49.4855 56.392C48.9788 56.9366 48.3183 57.2822 47.5039 57.429V57.5426C48.574 57.6799 49.3884 58.0516 49.9471 58.6577C50.5106 59.259 50.7899 60.0118 50.7852 60.9162C50.7899 61.7448 50.5508 62.4811 50.0679 63.125C49.5896 63.7689 48.9291 64.2756 48.0863 64.6449C47.2435 65.0142 46.2776 65.1989 45.1886 65.1989Z" fill="white" style="fill:white;fill-opacity:1;"/>
<defs>
<clipPath id="clip0_64_522">
<rect width="60" height="80" fill="white" style="fill:white;fill-opacity:1;"/>
</clipPath>
</defs>
</svg>
